<?xml version="1.0" encoding="UTF-8"?>
<svg width="55px" height="30px" viewBox="0 0 55 30" version="1.1" xmlns="http://www.w3.org/2000/svg" xmlns:xlink="http://www.w3.org/1999/xlink">
    <!-- Generator: Sketch 54 (76480) - https://sketchapp.com -->
    <title>UWH Heroes</title>
    <desc>Created with Sketch.</desc>
    <g id="UWHHEROES-global" stroke="none" stroke-width="1" fill="none" fill-rule="evenodd">
        <g id="iPad-Pro" transform="translate(-485.000000, -10.000000)" fill="#FFFFFF" fill-rule="nonzero">
            <path d="M492.230354,27.4439024 C490.028164,27.4439024 488.332979,27.0341504 487.144748,26.2146341 C485.956516,25.3951179 485.362409,23.9083035 485.362409,21.7541463 L485.362409,10 L488.879557,10 L488.879557,21.7307317 C488.879557,22.6517119 489.160768,23.3151199 489.723197,23.7209756 C490.285627,24.1268313 491.121338,24.3297561 492.230354,24.3297561 C493.33937,24.3297561 494.17112,24.1268313 494.725628,23.7209756 C495.280136,23.3151199 495.557386,22.6517119 495.557386,21.7307317 L495.557386,10 L499.098299,10 L499.098299,21.7541463 C499.098299,23.9083035 498.500231,25.3951179 497.304078,26.2146341 C496.107925,27.0341504 494.4167,27.4439024 492.230354,27.4439024 Z M500.785579,10 L504.42155,10 L507.249527,22.222439 L510.552795,10 L513.784769,10 L517.064272,22.222439 L519.89225,10 L523.52822,10 L519.321901,27.3268293 L515.733459,27.3268293 L512.168782,15.1043902 L508.58034,27.3268293 L504.991898,27.3268293 L500.785579,10 Z M525.453146,10 L528.970294,10 L528.970294,17.2117073 L535.600594,17.2117073 L535.600594,10 L539.141507,10 L539.141507,27.3268293 L535.600594,27.3268293 L535.600594,20.3258537 L528.970294,20.3258537 L528.970294,27.3268293 L525.453146,27.3268293 L525.453146,10 Z M485,29.0829268 L487.198218,29.0829268 L487.198218,33.5902439 L491.342155,33.5902439 L491.342155,29.0829268 L493.555225,29.0829268 L493.555225,39.9121951 L491.342155,39.9121951 L491.342155,35.5365854 L487.198218,35.5365854 L487.198218,39.9121951 L485,39.9121951 L485,29.0829268 Z M498.115042,39.9853659 C497.402103,39.9853659 496.778291,39.8292699 496.243586,39.5170732 C495.708882,39.2048765 495.441534,38.5658585 495.441534,37.6 L495.441534,31.5560976 C495.441534,30.6780444 495.686603,30.0463434 496.176749,29.6609756 C496.666894,29.2756078 497.258526,29.0829268 497.951661,29.0829268 C499.466656,29.0829268 501.050941,29.1463408 502.704564,29.2731707 L502.704564,31.0878049 L498.605185,31.0878049 C497.961559,31.0878049 497.639752,31.3853629 497.639752,31.9804878 L497.639752,33.5463415 L501.991628,33.6634146 L501.991628,35.3756098 L497.639752,35.4926829 L497.639752,36.9853659 C497.639752,37.6292715 497.946707,37.9512195 498.560627,37.9512195 L502.704564,37.9512195 L502.704564,39.7658537 C501.387607,39.9121959 499.857782,39.9853659 498.115042,39.9853659 Z M504.308669,29.0829268 L508.853632,29.0829268 C509.824021,29.0829268 510.588934,29.3390218 511.148393,29.8512195 C511.707852,30.3634172 511.987578,31.2634082 511.987578,32.5512195 C511.987578,33.4585411 511.831625,34.1317051 511.519714,34.5707317 C511.207803,35.0097583 510.784502,35.3414623 510.249797,35.5658537 L512.299487,39.9121951 L510.056711,39.9121951 L508.289225,35.902439 C507.813932,35.902439 507.219825,35.892683 506.506886,35.8731707 L506.506886,39.9121951 L504.308669,39.9121951 L504.308669,29.0829268 Z M508.467459,34.1609756 C508.893242,34.1609756 509.220001,34.0414646 509.447745,33.802439 C509.675489,33.5634134 509.78936,33.1463444 509.78936,32.5512195 C509.78936,31.9756069 509.675489,31.5780499 509.447745,31.3585366 C509.220001,31.1390233 508.893242,31.0292683 508.467459,31.0292683 L506.506886,31.0292683 L506.506886,34.1609756 L508.467459,34.1609756 Z M517.869295,40 C516.789985,40 515.92853,39.858538 515.284904,39.5756098 C514.641279,39.2926815 514.156091,38.7561015 513.829328,37.9658537 C513.502564,37.1756058 513.339184,36.0243978 513.339184,34.5121951 C513.339184,32.9999924 513.505039,31.8463454 513.836754,31.0512195 C514.168469,30.2560936 514.656131,29.7121966 515.299757,29.4195122 C515.943382,29.1268278 516.799887,28.9804878 517.869295,28.9804878 C518.948606,28.9804878 519.807585,29.1268278 520.44626,29.4195122 C521.084934,29.7121966 521.567646,30.2560936 521.89441,31.0512195 C522.221174,31.8463454 522.384553,32.9999924 522.384553,34.5121951 C522.384553,36.0243978 522.221174,37.1756058 521.89441,37.9658537 C521.567646,38.7561015 521.084934,39.2926815 520.44626,39.5756098 C519.807585,39.858538 518.948606,40 517.869295,40 Z M517.869295,38.0536585 C518.493117,38.0536585 518.965927,37.9634155 519.28774,37.7829268 C519.609552,37.6024381 519.839769,37.2609781 519.978396,36.7585366 C520.117023,36.256095 520.186335,35.507322 520.186335,34.5121951 C520.186335,33.4780436 520.117023,32.7097586 519.978396,32.2073171 C519.839769,31.7048755 519.609552,31.3658545 519.28774,31.1902439 C518.965927,31.0146333 518.493117,30.9268293 517.869295,30.9268293 C517.255375,30.9268293 516.787516,31.0146333 516.465703,31.1902439 C516.143891,31.3658545 515.908723,31.7073145 515.760194,32.2146341 C515.611665,32.7219538 515.537402,33.4877998 515.537402,34.5121951 C515.537402,35.5170782 515.606715,36.2682902 515.745342,36.7658537 C515.883969,37.2634171 516.114185,37.6024381 516.435998,37.7829268 C516.757811,37.9634155 517.235572,38.0536585 517.869295,38.0536585 Z M526.677019,39.9853659 C525.96408,39.9853659 525.340267,39.8292699 524.805563,39.5170732 C524.270859,39.2048765 524.003511,38.5658585 524.003511,37.6 L524.003511,31.5560976 C524.003511,30.6780444 524.24858,30.0463434 524.738725,29.6609756 C525.228871,29.2756078 525.820502,29.0829268 526.513638,29.0829268 C528.028633,29.0829268 529.612918,29.1463408 531.266541,29.2731707 L531.266541,31.0878049 L527.167162,31.0878049 C526.523536,31.0878049 526.201728,31.3853629 526.201728,31.9804878 L526.201728,33.5463415 L530.553605,33.6634146 L530.553605,35.3756098 L526.201728,35.4926829 L526.201728,36.9853659 C526.201728,37.6292715 526.508684,37.9512195 527.122603,37.9512195 L531.266541,37.9512195 L531.266541,39.7658537 C529.949584,39.9121959 528.419758,39.9853659 526.677019,39.9853659 Z M536.182825,40 C535.618415,40 535.014406,39.965854 534.37078,39.897561 C533.727155,39.829268 533.182557,39.741464 532.73697,39.6341463 L532.73697,37.9219512 C533.618242,38.0097565 534.732192,38.0536585 536.078855,38.0536585 C536.682873,38.0536585 537.138355,37.9731715 537.445315,37.8121951 C537.752274,37.6512187 537.905752,37.3658557 537.905752,36.9560976 L537.905752,36.5609756 C537.905752,36.2390228 537.80921,35.9926838 537.616122,35.8219512 C537.423034,35.6512187 537.14826,35.5658537 536.79179,35.5658537 L535.856063,35.5658537 C534.76685,35.5658537 533.952429,35.3317097 533.412773,34.8634146 C532.873118,34.3951196 532.603295,33.6292736 532.603295,32.5658537 L532.603295,32.0390244 C532.603295,30.009746 533.786558,28.995122 536.153119,28.995122 C536.707627,28.995122 537.281931,29.031707 537.876046,29.104878 C538.470162,29.1780491 539.004859,29.2634141 539.480151,29.3609756 L539.480151,31.0731707 C538.123587,30.9853654 537.098752,30.9414634 536.405617,30.9414634 C535.841207,30.9414634 535.41543,31.0268284 535.128274,31.197561 C534.841118,31.3682935 534.697543,31.6829245 534.697543,32.1414634 L534.697543,32.4341463 C534.697543,32.8048799 534.803987,33.0756089 535.016878,33.2463415 C535.22977,33.417074 535.554053,33.502439 535.989738,33.502439 L537.073994,33.502439 C538.024579,33.502439 538.749885,33.758534 539.249932,34.2707317 C539.74998,34.7829294 540,35.4536544 540,36.2829268 L540,36.897561 C540,37.7170773 539.846522,38.3536563 539.539563,38.8073171 C539.232603,39.2609779 538.801875,39.5731699 538.247367,39.7439024 C537.692859,39.914635 537.004685,40 536.182825,40 Z" id="UWH-Heroes"></path>
        </g>
    </g>
</svg>