<?xml version="1.0" encoding="UTF-8"?>
<svg width="83px" height="58px" viewBox="0 0 83 58" version="1.1" xmlns="http://www.w3.org/2000/svg" xmlns:xlink="http://www.w3.org/1999/xlink">
    <!-- Generator: Sketch 50 (54983) - http://www.bohemiancoding.com/sketch -->
    <title>UWH fern rev Copy</title>
    <desc>Created with Sketch.</desc>
    <defs></defs>
    <g id="Page-1" stroke="none" stroke-width="1" fill="none" fill-rule="evenodd">
        <g id="iPad-Pro" transform="translate(-484.000000, -20.000000)" fill="#FFFFFF">
            <g id="Stacked-Group-3-Copy-2" transform="translate(216.000000, 0.000000)">
                <g id="UWH-fern-rev" transform="translate(268.000000, 20.000000)">
                    <path d="M10.2834138,32.5200988 C10.601819,34.1290617 13.0302845,40.6601481 11.9942155,42.6342963 C10.5760603,44.4380247 9.88415517,42.7968395 10.0186724,41.2200988 C10.2197328,38.163284 9.64875,36.4927407 8.70927586,33.5476296 C7.06430172,28.8023704 5.51019828,23.9654568 7.85637931,22.8620247 C8.96686207,22.3393086 12.2682586,21.807284 10.9524224,23.5859506 C9.36182759,25.723358 9.33535345,27.7225679 10.2834138,32.5200988 Z M30.0817759,21.169284 C30.210569,22.5125926 31.704569,28.0677037 30.6434569,29.5928889 C29.2696638,30.9455062 28.8238966,29.5427654 29.0800517,28.2646173 C29.5243879,25.780642 29.1845172,24.3635802 28.6435862,21.8731605 C27.6590345,17.8482469 26.7610603,13.7560247 28.8661121,13.0564444 C29.8628276,12.7256296 32.7334828,12.5766914 31.4491293,13.9185679 C29.8986034,15.5282469 29.6975431,17.1615556 30.0817759,21.169284 Z M36.2001638,18.6523704 C36.2967586,19.8553333 37.5424741,24.8490617 36.5915517,26.1923704 C35.3687328,27.376 34.9945172,26.114321 35.2342155,24.9765185 C35.6542241,22.7639259 35.3744569,21.4915062 34.9286897,19.2545679 C34.1137155,15.6378025 33.3745862,11.963037 35.2313534,11.3773086 C36.1107241,11.1001975 38.6336379,11.02 37.4895259,12.195037 C36.1078621,13.6063704 35.9118103,15.0620988 36.2001638,18.6523704 Z M42.7757672,16.5650864 C42.891681,17.646321 44.2189655,22.1173333 43.2895086,23.3417778 C42.0867241,24.4265926 41.6917586,23.2973827 41.9128534,22.2705679 C42.2970862,20.2735062 41.9951379,19.1328395 41.5143103,17.1279012 C40.6399483,13.8892099 39.841431,10.5953827 41.688181,10.0375802 C42.5625431,9.77264198 45.0840259,9.65879012 43.9585172,10.7350123 C42.601181,12.0274815 42.4287414,13.340716 42.7757672,16.5650864 Z M48.3145862,15.006963 C48.4398017,15.978642 49.7284483,19.9820741 48.9027414,21.097679 C47.8244569,22.0915556 47.4445172,21.0804938 47.6284052,20.1532099 C47.9432328,18.3509136 47.6491552,17.3283951 47.1747672,15.5311111 C46.3197241,12.629679 45.5340862,9.67740741 47.2091121,9.14824691 C48.0019052,8.89834568 50.2987155,8.7594321 49.2919828,9.744 C48.0756034,10.9269136 47.9418017,12.1105432 48.3145862,15.006963 Z M53.9364052,13.6436049 C54.0616207,14.5078765 55.3495517,18.0687901 54.5238448,19.0612346 C53.4455603,19.9448395 53.0656207,19.0461975 53.2495086,18.2205926 C53.5643362,16.617358 53.2695431,15.7086914 52.7958707,14.1097531 C51.9415431,11.5283951 51.1551897,8.90264198 52.8302155,8.43219753 C53.6230086,8.20950617 55.919819,8.08634568 54.9130862,8.96207407 C53.6974224,10.0132346 53.5629052,11.0665432 53.9364052,13.6436049 Z M59.1317759,12.3139012 C59.2133448,13.0843704 60.2308103,16.2843951 59.470931,17.1415062 C58.492819,17.8947901 58.1880086,17.0849383 58.3769052,16.3581481 C58.7067586,14.9439506 58.4777931,14.1283704 58.1121638,12.6948395 C57.4445862,10.3784198 56.8378276,8.02404938 58.32825,7.65528395 C59.03375,7.4805679 61.0608103,7.43832099 60.1456638,8.18659259 C59.0401897,9.08523457 58.8877845,10.0153827 59.1317759,12.3139012 Z M63.8391638,11.0114074 C63.9286034,11.687358 64.886681,14.4699259 64.2498707,15.253284 C63.4213017,15.9521481 63.1372414,15.2511358 63.2832069,14.6031111 C63.535069,13.3450123 63.3161207,12.6346914 62.9655172,11.3844691 C62.331569,9.36735802 61.7498534,7.31516049 63.0313448,6.93493827 C63.6381034,6.75592593 65.3925517,6.64350617 64.6176466,7.33664198 C63.6824655,8.16869136 63.5729914,8.9957284 63.8391638,11.0114074 Z M68.0192155,9.3422963 C68.1172414,9.9208642 69.1110948,12.2931358 68.4843017,12.9783951 C67.6636034,13.5956296 67.3716724,12.9984444 67.5097672,12.4392099 C67.7451724,11.3522469 67.5169224,10.7471852 67.1512931,9.6802716 C66.4923017,7.95888889 65.8841121,6.20671605 67.1598793,5.85585185 C67.7644914,5.68901235 69.5167931,5.55869136 68.7511897,6.16876543 C67.8267414,6.90271605 67.7272845,7.61446914 68.0192155,9.3422963 Z M71.8529569,7.75409877 C71.9323793,8.22955556 72.77025,10.1779259 72.2250259,10.7357284 C71.5152328,11.237679 71.2676638,10.7464691 71.3900172,10.2889136 C71.6010948,9.4002963 71.4100517,8.90264198 71.1023793,8.02691358 C70.5478534,6.6134321 70.0376897,5.17560494 71.1388707,4.89419753 C71.6597672,4.7602963 73.1702241,4.66291358 72.5062241,5.1591358 C71.7048448,5.75488889 71.6139741,6.33846914 71.8529569,7.75409877 Z M75.2115948,5.90239506 C75.2180345,6.30051852 75.6745345,8.0011358 75.1450517,8.38279012 C74.4824828,8.6957037 74.3372328,8.26249383 74.4982241,7.90590123 C74.7894397,7.20990123 74.6921293,6.77883951 74.5454483,6.02340741 C74.2585259,4.79609877 74.0131034,3.55518519 74.9761897,3.4742716 C75.4319741,3.43632099 76.7148966,3.55948148 76.0931121,3.87454321 C75.3425345,4.25261728 75.1915603,4.71518519 75.2115948,5.90239506 Z M77.9513103,3.93397531 C77.8904914,4.24402469 77.9412931,5.64461728 77.4976724,5.84367901 C76.9710517,5.96612346 76.9367069,5.60380247 77.1120086,5.35676543 C77.4347069,4.87128395 77.4354224,4.5182716 77.4525948,3.90676543 C77.4468707,2.9042963 77.4733448,1.89753086 78.1788448,2.01066667 C78.5122759,2.06365432 79.4145431,2.39232099 78.9165431,2.52264198 C78.3147931,2.67945679 78.1309052,3.01098765 77.9513103,3.93397531 Z M80.4370172,2.13311111 C80.3618879,2.35508642 80.3318362,3.43274074 79.8960862,3.4857284 C79.3837759,3.46209877 79.3723276,3.17854321 79.5533534,3.02888889 C79.8896466,2.7317284 79.909681,2.46320988 79.9611983,2.00135802 C80.0112845,1.23733333 80.093569,0.476888889 80.7625776,0.71891358 C81.0795517,0.833481481 81.7456983,1.18004938 81.2598621,1.16930864 C80.6752845,1.1542716 80.6609741,1.47004938 80.4370172,2.13311111 Z M16.8110776,28.1958765 C17.0157155,29.7769136 18.9805259,36.2736296 17.8092241,38.1167407 C16.2687155,39.7700988 15.7184828,38.6201235 15.9610431,37.0634321 C16.37175,34.0409877 15.9173966,32.3403704 15.1832759,29.348716 C13.8688707,24.519679 12.6517759,19.6061481 15.0673621,18.6745679 C16.2114741,18.2341975 19.5407759,17.9377531 18.1054483,19.6125926 C16.37175,21.6232593 16.2014569,23.4806914 16.8110776,28.1958765 Z M23.3280086,24.6363951 C23.4417759,26.1644444 24.9457931,32.5021975 23.7802155,34.2114074 C22.284069,35.7186914 21.830431,34.1168889 22.1266552,32.6711852 C22.6475517,29.8599753 22.3091121,28.2445679 21.7731897,25.4061481 C20.7893534,20.8155556 19.8985345,16.1519259 22.1681552,15.4015062 C23.2428621,15.0463457 26.3245948,14.935358 24.9228966,16.4319012 C23.2314138,18.2284691 22.9867069,20.0787407 23.3280086,24.6363951 Z M81.9295862,2.00637037 C63.2216724,27.9187654 43.4862759,11.9701975 0.472956897,54.9668148 C0.189612069,55.302642 0.289068966,55.7695062 0.38637931,55.9879012 C1.37951724,58.333679 2.67388793,58.304321 3.22841379,57.5180988 C6.26506897,53.8118272 9.09994828,50.3196543 12.0407241,47.4053333 C16.4654828,52.4162469 19.2681638,49.9036296 26.6845,54.2335802 C27.4565431,54.5536543 27.7677931,54.0739012 28.0532845,53.7574074 C58.7704397,22.0736543 69.1118103,33.7975309 82.7095,1.73641975 C82.7860603,1.34975309 82.3460172,1.37123457 81.9295862,2.00637037 Z" id="UWH-fern"></path>
                </g>
            </g>
        </g>
    </g>
</svg>