<?xml version="1.0" encoding="UTF-8"?>
<svg width="100px" height="60px" viewBox="0 0 100 60" version="1.1" xmlns="http://www.w3.org/2000/svg" xmlns:xlink="http://www.w3.org/1999/xlink">
    <!-- Generator: Sketch 54 (76480) - https://sketchapp.com -->
    <title>flag/NZL</title>
    <desc>Created with Sketch.</desc>
    <g id="flag/NZL" stroke="none" stroke-width="1" fill="none" fill-rule="evenodd">
        <g id="Group-23" transform="translate(-0.000000, 0.000000)">
            <polygon id="Fill-1" fill="#1A237B" points="51.5235986 0 51.5235986 1.91819762 51.5235986 2.57691933 51.5235986 2.88256621 40.0913905 8.62486294 51.5235986 8.62486294 51.5235986 10.3498355 51.5235986 12.9408076 51.5235986 15.5282665 51.5235986 17.2497259 40.0913905 17.2497259 51.5235986 22.9955358 51.5235986 23.9599044 51.5235986 25.8886415 51.5235986 26.0502479 48.0012898 26.0502479 46.6902568 26.0502479 46.0836855 26.0502479 30.0418852 17.9910074 30.0418852 26.0502479 28.3253059 26.0502479 25.748689 26.0502479 23.1738201 26.0502479 21.4554928 26.0502479 21.4554928 17.9910074 5.41544049 26.0502479 3.49783616 26.0502479 4.54747351e-13 26.0502479 4.54747351e-13 60.3793103 103 60.3793103 103 0"></polygon>
            <polygon id="Fill-2" fill="#1A237B" points="4.54747351e-13 17.7586207 4.54747351e-13 23.0862069 11.5431034 17.7586207"></polygon>
            <polygon id="Fill-3" fill="#1A237B" points="30.1896552 0 30.1896552 7.99137931 46.1724138 0"></polygon>
            <polygon id="Fill-4" fill="#1A237B" points="6.21551724 0 22.1982759 7.99137931 22.1982759 0"></polygon>
            <polygon id="Fill-5" fill="#1A237B" points="4.54747351e-13 7.99137931 11.5431034 7.99137931 4.54747351e-13 2.6637931"></polygon>
            <polygon id="Fill-6" fill="#FFFFFF" points="51.4756456 0 34.3927919 8.87931034 30.5726344 8.87931034 47.6572277 0 45.747149 0 30.1238181 8.1233935 30.1238181 0 28.4137931 0 28.4137931 9.00951612 28.4137931 10.0023351 28.4137931 10.6551724 30.9744816 10.6551724 34.7963787 10.6551724 36.1010773 10.6551724 36.7047178 10.6551724 51.5 10.6551724 51.5 8.87931034 40.1230282 8.87931034 51.5 2.96760657 51.5 2.65294262 51.5 1.97478756 51.5 0"></polygon>
            <polygon id="Fill-7" fill="#FFFFFF" points="21.3743761 0 21.3743761 8.1233935 5.73280479 0 4.54747351e-13 0 17.100894 8.87931034 13.2784437 8.87931034 4.54747351e-13 1.98925486 4.54747351e-13 2.98026547 11.3646063 8.87931034 4.54747351e-13 8.87931034 4.54747351e-13 10.6551724 14.7847851 10.6551724 16.696881 10.6551724 20.5193314 10.6551724 23.0862069 10.6551724 23.0862069 10.0023351 23.0862069 9.32418007 23.0862069 9.00951612 23.0862069 0"></polygon>
            <polygon id="Fill-8" fill="#FFFFFF" points="34.7963787 15.0948276 30.9744816 15.0948276 28.4137931 15.0948276 28.4137931 15.7369841 28.4137931 16.4040441 28.4137931 16.71356 28.4137931 25.75 30.1220785 25.75 30.1220785 17.5887427 46.0863706 25.75 46.6900111 25.75 47.9947098 25.75 51.5 25.75 51.5 25.5863479 34.3927919 16.8380778 38.2112098 16.8380778 51.5 23.634975 51.5 22.6583991 40.1230282 16.8380778 51.5 16.8380778 51.5 15.0948276 36.7047178 15.0948276"></polygon>
            <polygon id="Fill-9" fill="#FFFFFF" points="20.5193314 15.0948276 16.696881 15.0948276 15.3908046 15.0948276 14.7865266 15.0948276 4.54747351e-13 15.0948276 4.54747351e-13 16.8416355 11.3646063 16.8416355 4.54747351e-13 22.6441684 4.54747351e-13 25.575675 17.100894 16.8416355 20.9250858 16.8416355 3.4846119 25.75 5.39496635 25.75 21.3743761 17.5887427 21.3743761 25.75 23.0862069 25.75 23.0862069 16.71356 23.0862069 15.7369841 23.0862069 15.0948276"></polygon>
            <polygon id="Fill-10" fill="#BD0034" points="16.6900885 16.8706897 4.54747351e-13 25.5763129 4.54747351e-13 25.75 3.40090296 25.75 20.4224138 16.8706897"></polygon>
            <polygon id="Fill-11" fill="#BD0034" points="4.54747351e-13 0 4.54747351e-13 1.98925486 13.0996954 8.87931034 16.8706897 8.87931034"></polygon>
            <polygon id="Fill-12" fill="#BD0034" points="47.7693743 0 31.0775862 8.87931034 34.8099115 8.87931034 51.5 0"></polygon>
            <polygon id="Fill-13" fill="#BD0034" points="34.6293103 16.8706897 51.5 25.75 51.5 23.767592 38.3949361 16.8706897"></polygon>
            <polygon id="Fill-14" fill="#BD0034" points="23.1632061 0 23.1632061 8.65047202 23.1632061 8.95259609 23.1632061 9.60372556 23.1632061 10.2305462 20.5877693 10.2305462 16.75257 10.2305462 14.8358439 10.2305462 4.54747351e-13 10.2305462 4.54747351e-13 15.349292 14.8358439 15.349292 15.4421374 15.349292 16.75257 15.349292 20.5877693 15.349292 23.1632061 15.349292 23.1632061 15.9761126 23.1632061 16.9293661 23.1632061 25.75 25.7368957 25.75 28.3123325 25.75 28.3123325 16.9293661 28.3123325 16.6272421 28.3123325 15.9761126 28.3123325 15.349292 30.8842748 15.349292 34.7229686 15.349292 36.6396947 15.349292 51.5 15.349292 51.5 12.7916554 51.5 10.2305462 36.6396947 10.2305462 36.0334012 10.2305462 34.7229686 10.2305462 30.8842748 10.2305462 28.3123325 10.2305462 28.3123325 9.60372556 28.3123325 8.65047202 28.3123325 0"></polygon>
            <polygon id="Fill-15" fill="#FFFFFF" points="71.9224138 17.8076038 74.6353481 17.8076038 75.4741379 15.0948276 76.3112332 17.8076038 79.0258621 17.8076038 76.8314524 19.4837184 77.6685476 22.1982759 75.4741379 20.5203801 73.2763392 22.1982759 74.1168235 19.4837184"></polygon>
            <polygon id="Fill-16" fill="#BD0034" points="72.8103448 18.5677592 74.5070589 18.5677592 75.0309735 16.8706897 75.5548881 18.5677592 77.25 18.5677592 75.8785295 19.6166425 76.4040462 21.3103448 75.0309735 20.2648288 73.659503 21.3103448 74.1818154 19.6166425"></polygon>
            <polygon id="Fill-17" fill="#FFFFFF" points="60.3793103 28.4641374 63.0922447 28.4641374 63.9310345 25.75 64.7681298 28.4641374 67.4827586 28.4641374 65.2883489 30.1375288 66.1254442 32.8534483 63.9310345 31.1782748 61.7366248 32.8534483 62.5737201 30.1375288"></polygon>
            <polygon id="Fill-18" fill="#BD0034" points="62.1551724 29.2229316 63.8512744 29.2229316 64.375 27.5258621 64.8987256 29.2229316 66.5948276 29.2229316 65.2238518 30.2718149 65.7475774 31.9655172 64.375 30.916634 63.0040242 31.9655172 63.5261482 30.2718149"></polygon>
            <polygon id="Fill-19" fill="#FFFFFF" points="81.6896552 26.3492157 84.0635796 26.3492157 84.7965808 23.9741379 85.531248 26.3492157 87.9051724 26.3492157 85.984376 27.8145774 86.7190432 30.1896552 84.7965808 28.7225407 82.8757844 30.1896552 83.6087857 27.8145774"></polygon>
            <polygon id="Fill-20" fill="#BD0034" points="82.5775862 26.5557993 84.2728254 26.5557993 84.796514 24.862069 85.3202025 26.5557993 87.0172414 26.5557993 85.6459332 27.6061014 86.1678221 29.3017241 84.796514 28.2514221 83.4270054 29.3017241 83.9488944 27.6061014"></polygon>
            <polygon id="Fill-21" fill="#FFFFFF" points="71.0344828 46.5605957 74.0861736 46.5605957 75.0284561 43.5086207 75.9707385 46.5605957 79.0258621 46.5605957 76.5560178 48.448025 77.4983003 51.5 75.0284561 49.6125707 72.5620445 51.5 73.504327 48.448025"></polygon>
            <polygon id="Fill-22" fill="#BD0034" points="72.8103448 47.3184537 74.8464974 47.3184537 75.4732722 45.2844828 76.1035099 47.3184537 78.137931 47.3184537 76.4913485 48.578098 77.1215862 50.612069 75.4732722 49.3524247 73.8284211 50.612069 74.4586588 48.578098"></polygon>
        </g>
    </g>
</svg>